<?xml version="1.0" encoding="utf-8"?>
<!-- Generator: Adobe Illustrator 23.0.3, SVG Export Plug-In . SVG Version: 6.00 Build 0)  -->
<svg version="1.1" id="Layer_1" xmlns="http://www.w3.org/2000/svg" xmlns:xlink="http://www.w3.org/1999/xlink" x="0px" y="0px"
	 viewBox="0 0 501.9 66.2" style="enable-background:new 0 0 501.9 66.2;" xml:space="preserve">
<style type="text/css">
	.st0{fill:#AFABAB;}
	.st1{fill:#767171;}
	.st2{fill-rule:evenodd;clip-rule:evenodd;fill:#C6C6C6;}
</style>
<title>autopandas_alpha</title>
<path class="st0" d="M23.5,15.5c2.5,2.1,3.8,5.5,3.8,10.3V45H20v-2.8c-1.3,1.2-2.8,2.1-4.4,2.7c-1.8,0.7-3.6,1-5.5,1
	c-3.3,0-5.8-0.8-7.5-2.4c-1.8-1.7-2.7-4.1-2.6-6.6c0-2.1,0.7-4.2,2.1-5.8c1.7-1.7,3.8-3,6.2-3.6c3.1-0.9,6.4-1.3,9.6-1.2h2.3
	c-0.2-2.8-0.9-4.7-2-5.9c-1.4-1.3-3.2-1.9-5.1-1.8c-1.6,0-3.2,0.4-4.6,1.1c-1.6,0.8-3.1,1.9-4.3,3.2l-3.9-5c1.9-1.7,4-3.1,6.4-4.1
	c2.2-0.9,4.5-1.4,6.8-1.4C17.6,12.4,21,13.4,23.5,15.5z M17.9,38c1.3-1.4,2.1-3.6,2.4-6.7h-1.5c-3.9,0-6.7,0.4-8.5,1.3
	c-1.7,0.6-2.7,2.2-2.7,4c-0.1,1.1,0.4,2.1,1.3,2.7c1.1,0.6,2.4,0.9,3.7,0.8C14.5,40.2,16.5,39.4,17.9,38z"/>
<path class="st0" d="M37.3,43.2c-1.8-2.1-2.7-5.4-2.7-10V13.4h7.5v19.8c-0.1,1.8,0.3,3.7,1.2,5.3c0.7,1.1,2,1.8,3.3,1.7
	c1.2,0,2.4-0.3,3.4-1c1.1-0.7,1.9-1.7,2.5-2.8c0.6-1.2,0.9-2.6,0.9-4v-19H61v26.5c0,1,0,2.1,0.1,3.1c0.1,0.7,0.3,1.4,0.6,2.1h-7.4
	c-0.3-0.5-0.5-1.1-0.5-1.7c-0.1-0.7-0.1-1.3-0.1-2c-1.8,3-5,4.9-8.5,5C41.7,46.4,39.1,45.3,37.3,43.2z"/>
<path class="st0" d="M95.9,42.2c-1.6,1.2-3.3,2.1-5.1,2.8c-1.9,0.7-3.8,1-5.8,1c-3.3,0-5.8-1-7.5-2.9s-2.6-5.3-2.6-10
	c0-1.2,0.1-2.5,0.2-4l0.6-9.5h-6.8l0.1-6.2h7.1L76.4,6l8.3-1.4l0.1,0.8l-0.3,0.5c-0.2,0.3-0.3,0.6-0.4,0.9c-0.1,0.4-0.2,0.8-0.2,1.2
	l-0.5,5.5h9.7L93,19.5h-9.7l-0.7,9c-0.1,1.5-0.2,2.8-0.2,3.7c0,2.8,0.3,4.8,1,5.9c0.7,1.1,1.9,1.8,3.2,1.7c1.3,0,2.6-0.3,3.8-0.8
	c1.4-0.7,2.7-1.5,3.9-2.6L95.9,42.2z"/>
<path class="st0" d="M108.3,44c-2.3-1.5-4.2-3.5-5.4-6c-1.4-2.7-2-5.7-2-8.7c0-2.9,0.6-5.8,2-8.4c1.3-2.5,3.1-4.5,5.5-6
	c4.6-2.9,10.5-2.9,15.1,0c2.3,1.5,4.2,3.5,5.5,6c1.4,2.6,2,5.5,2,8.4c0,3-0.6,6-2,8.7c-1.2,2.5-3.1,4.5-5.4,6
	C118.8,46.8,112.9,46.8,108.3,44L108.3,44z M119.8,38.7c1.2-1,2.1-2.3,2.6-3.8c0.6-1.8,0.9-3.7,0.9-5.7c0-1.9-0.3-3.8-0.9-5.6
	c-0.5-1.4-1.4-2.7-2.6-3.6c-1.1-0.8-2.5-1.3-3.9-1.3c-1.4,0-2.7,0.4-3.8,1.3c-1.2,0.9-2.1,2.2-2.5,3.6c-0.6,1.8-1,3.7-0.9,5.6
	c0,1.9,0.3,3.9,0.9,5.7c0.5,1.5,1.3,2.8,2.5,3.8c1.1,0.9,2.5,1.4,3.9,1.3C117.3,40,118.7,39.6,119.8,38.7z"/>
<path class="st1" d="M140.3,14.1h7.3V18c0.8-1.5,2-2.7,3.5-3.5c1.4-0.8,3-1.1,4.7-1.1c2.3,0,4.5,0.7,6.4,2c2.1,1.4,3.7,3.4,4.7,5.7
	c1.2,2.9,1.8,6,1.8,9.1c0.1,3.1-0.5,6.3-1.8,9.1c-1,2.3-2.6,4.2-4.7,5.6c-1.9,1.2-4.1,1.9-6.3,1.9c-1.6,0-3.1-0.3-4.6-1.1
	c-1.4-0.8-2.6-2-3.3-3.4V57h-7.6L140.3,14.1z M157.6,39.4c1.2-0.9,2-2.2,2.5-3.6c0.7-2,1-4,0.9-6.1c0.1-2.5-0.4-5.1-1.5-7.3
	c-0.9-1.8-2.9-2.9-4.9-2.8c-2.1-0.1-4.1,1-5.1,2.9c-1.2,2.4-1.8,5.1-1.6,7.8c0,3.4,0.6,6,1.7,7.6c0.9,1.6,2.7,2.6,4.5,2.5
	C155.4,40.5,156.6,40.1,157.6,39.4z"/>
<path class="st1" d="M196.7,16.2c2.5,2.1,3.8,5.5,3.8,10.3v19.2h-7.2v-2.8c-1.3,1.2-2.8,2.1-4.4,2.7c-1.8,0.7-3.6,1-5.5,1
	c-3.3,0-5.8-0.8-7.5-2.4c-1.8-1.7-2.7-4.1-2.6-6.6c0-2.1,0.7-4.2,2.1-5.8c1.7-1.8,3.8-3,6.2-3.7c3.1-0.9,6.4-1.3,9.6-1.2h2.3
	c-0.2-2.8-0.9-4.7-2-5.9c-1.4-1.3-3.2-1.9-5.1-1.8c-1.6,0-3.1,0.4-4.5,1.1c-1.6,0.8-3.1,1.9-4.3,3.2l-3.9-5c1.9-1.7,4-3.1,6.4-4.1
	c2.1-0.9,4.4-1.4,6.7-1.4C190.9,13.1,194.2,14.1,196.7,16.2z M191.1,38.6c1.3-1.4,2.1-3.6,2.4-6.7h-1.5c-3.9,0-6.7,0.4-8.5,1.3
	c-1.7,0.6-2.7,2.2-2.7,4c-0.1,1.1,0.4,2.1,1.3,2.7c1.1,0.6,2.4,0.9,3.7,0.9C187.8,40.9,189.7,40.1,191.1,38.6L191.1,38.6z"/>
<path class="st1" d="M208.4,14.1h7.6v3.3c1.1-1.2,2.5-2.2,4-2.9c1.6-0.7,3.3-1,5-1c2.8-0.1,5.4,1.1,7.2,3.2c1.8,2.1,2.7,5.5,2.7,10
	v19.1h-7.6V26.6c0-2.4-0.4-4.1-1.3-5.3c-0.9-1.2-2.4-1.8-3.9-1.7c-1,0-2.1,0.2-3,0.7c-0.9,0.4-1.7,1.1-2.2,1.9
	c-0.6,1-0.9,2.1-0.8,3.2v20.3h-7.6L208.4,14.1z"/>
<path class="st1" d="M246.9,44.9c-2.1-1.3-3.8-3.3-4.9-5.6c-1.3-2.8-1.9-5.9-1.8-9c-0.1-3.1,0.6-6.2,1.8-9c1.1-2.4,2.8-4.4,4.9-5.9
	c2-1.4,4.3-2.1,6.7-2.1c1.4,0,2.7,0.3,3.9,0.9c1.3,0.5,2.4,1.3,3.4,2.3V0h8.3v0.8c-0.2,0.2-0.4,0.6-0.5,0.9
	c-0.1,0.5-0.1,1.1-0.1,1.6l-0.1,38.7c0,0.7,0,1.3,0.1,2c0.1,0.6,0.3,1.2,0.6,1.8H262c-0.3-0.5-0.5-1-0.5-1.6
	c-0.1-0.7-0.1-1.5-0.1-2.2c-0.6,1.5-1.7,2.8-3.1,3.6c-1.3,0.8-2.9,1.2-4.4,1.2C251.4,46.8,249,46.1,246.9,44.9z M261.1,29.6
	c0.1-2.5-0.3-5-1.3-7.3c-0.9-1.8-2.7-2.9-4.7-2.7c-2.2-0.1-4.3,1.1-5.3,3c-1.3,2.4-1.9,5-1.8,7.7c-0.1,2,0.3,4,1,5.8
	c0.6,1.3,1.5,2.4,2.6,3.2c1,0.6,2.1,1,3.3,1C259,40.4,261.1,36.8,261.1,29.6L261.1,29.6z"/>
<path class="st1" d="M298.3,16.2c2.5,2.1,3.8,5.5,3.8,10.3v19.2h-7.2v-2.8c-1.3,1.2-2.8,2.1-4.4,2.7c-1.8,0.7-3.6,1-5.5,1
	c-3.3,0-5.8-0.8-7.5-2.4c-1.8-1.7-2.7-4.1-2.6-6.6c0-2.1,0.7-4.2,2.1-5.8c1.7-1.7,3.8-3,6.1-3.6c3.1-0.9,6.4-1.3,9.6-1.2h2.3
	c-0.2-2.8-0.9-4.7-2-5.9c-1.4-1.3-3.2-1.9-5.1-1.8c-1.6,0-3.1,0.4-4.5,1.1c-1.6,0.8-3.1,1.9-4.3,3.2l-3.9-5c1.9-1.7,4-3.1,6.4-4.1
	c2.1-0.9,4.4-1.4,6.7-1.4C292.5,13.1,295.8,14.1,298.3,16.2z M292.7,38.6c1.3-1.4,2.1-3.6,2.4-6.7h-1.6c-3.9,0-6.7,0.4-8.5,1.3
	c-1.7,0.6-2.7,2.2-2.7,4c-0.1,1.1,0.4,2.1,1.3,2.7c1.1,0.6,2.4,0.9,3.7,0.9C289.4,40.9,291.3,40.1,292.7,38.6L292.7,38.6z"/>
<path class="st1" d="M330,28l2.2,1.2c1.3,0.7,2.4,1.7,3.2,2.9c0.7,1.3,1.1,2.7,1.1,4.2c0,1.8-0.6,3.6-1.6,5.2
	c-1.2,1.7-2.7,3-4.5,3.8c-2,1-4.1,1.5-6.4,1.5c-2.8,0.1-5.6-0.4-8.3-1.3c-2.4-0.9-4.6-2.3-6.5-4.1l3.2-5.6v-0.1l0.1,0.1
	c1.4,1.6,3.1,2.8,5,3.7c2.1,0.8,4.3,1.2,6.6,1.2c3.6,0,5.4-1.2,5.4-3.6c0-0.7-0.2-1.4-0.7-1.9c-0.6-0.6-1.3-1.1-2.1-1.5
	c-1.3-0.6-2.6-1-4-1.4c-3-0.7-5.9-1.9-8.5-3.6c-2-1.4-3.1-3.6-3-6c0-1.7,0.5-3.4,1.5-4.9c1.1-1.5,2.5-2.7,4.2-3.3
	c2-0.9,4.2-1.3,6.5-1.2c2.3,0,4.6,0.4,6.8,1.2c2.1,0.8,4,2.1,5.6,3.7l-3.8,5.3v0.1l0,0c-0.9-1.3-2.2-2.4-3.6-3.1
	c-1.5-0.7-3.2-1.1-4.8-1.1c-1.2,0-2.3,0.2-3.4,0.7c-0.8,0.3-1.3,1-1.4,1.9c0,0.7,0.3,1.4,0.7,1.9c0.6,0.6,1.4,1.1,2.2,1.4
	c1,0.4,2.4,0.9,4.3,1.5L330,28z M312.1,35.6L312.1,35.6L312.1,35.6l0.4,0.1l-0.1,0.2L312.1,35.6z M313.4,35.9
	C313.4,35.9,313.3,35.9,313.4,35.9C313.3,35.9,313.3,35.9,313.4,35.9c-0.2,0-0.3,0-0.4-0.1l-0.4-0.2l0.1-0.2L313.4,35.9L313.4,35.9z
	 M331,23.6C331,23.6,331,23.6,331,23.6c0.2,0,0.3,0,0.4,0.1l0.3,0.2l-0.1,0.2L331,23.6L331,23.6z M332.1,24.1c0,0,0,0-0.1,0
	l-0.2-0.2l0.2-0.3C332,23.9,332.1,24,332.1,24.1L332.1,24.1z"/>
<ellipse class="st1" cx="444.9" cy="15.6" rx="11" ry="12"/>
<circle class="st1" cx="399.9" cy="15.6" r="12"/>
<path class="st2" d="M421.9,7.6h2.1l1.9,0.5c4,1,7.8,2.2,10.6,4.1c3.7,2.5,5.1,5.6,7.7,10.1s7.7,12.5,7.7,17s-2.6,8-7.9,9.9
	c-3.5,1.3-10.6,2.2-16.4,2.4h-1l0,0h-9.1l0,0h-1.4c-5.8-0.1-13-1.1-16.4-2.4c-5.3-2-7.8-5.4-7.9-9.9s5.1-12.5,7.7-17
	s3.9-7.5,7.7-10.1c2.8-1.9,6.6-3.1,10.6-4.1l1.9-0.5L421.9,7.6z"/>
<polygon class="st1" points="418.8,13.6 424.5,22.6 422.2,23.7 429.4,31.4 427,32.7 435.9,45.6 420.8,35.7 423.7,34.3 414.4,28 
	417.7,26 407.9,19.4 "/>
<path class="st0" d="M346.9,56l0.1,0.5l-1.7,1.2c-0.4,0.3-0.8,0.5-1.3,0.7c-0.1,0-0.2,0.1-0.3,0.1c-0.2,0-0.3-0.1-0.4-0.2
	c-0.1-0.1-0.2-0.3-0.2-0.5c0.1-1.3,0.3-2.5,0.7-3.8l-0.1,0c-0.6,0.8-1,1.3-1.3,1.7c-0.5,0.6-1.1,1.2-1.8,1.7c-0.5,0.4-1.1,0.8-1.7,1
	c-0.1,0.1-0.3,0.1-0.4,0.1c-0.2,0-0.4-0.1-0.5-0.3c-0.2-0.5-0.4-1-0.3-1.5c0-1.1,0.2-2.2,0.5-3.2c0.3-1.1,0.7-2.2,1.3-3.2
	c0.3-0.5,0.6-0.9,1-1.2c0.6-0.5,1.3-0.8,2-1.1c0.4-0.1,0.9-0.2,1.3-0.2c0.3,0,0.6,0,0.9,0.1c0.4,0.1,0.8,0.2,1.1,0.3l0.7-0.4L347,48
	c-0.5,1.6-0.9,3-1.3,4.4c-0.2,0.8-0.4,1.5-0.5,1.9c-0.1,0.7-0.3,1.3-0.3,1.9c0,0.1,0,0.2,0,0.3c0,0.1,0,0.2,0.1,0.3
	c0.1,0.1,0.1,0.1,0.2,0.1c0.2,0,0.3-0.1,0.5-0.1C346.1,56.5,346.5,56.3,346.9,56z M345,49.3c-0.3-0.1-0.6-0.2-0.9-0.3
	c-0.3-0.1-0.6-0.1-1-0.1c-0.5,0-1,0.1-1.5,0.3c-0.2,0.2-0.4,0.4-0.5,0.7c-0.4,0.8-0.7,1.6-1,2.5c-0.4,1.2-0.6,2.5-0.7,3.8
	c0,0.1,0,0.3,0.1,0.4c0,0.1,0.1,0.2,0.2,0.2c0.1,0,0.1,0.1,0.2,0.1c0.2,0,0.5-0.1,0.7-0.3c0.7-0.5,1.3-1,1.8-1.6
	c0.7-0.7,1.2-1.5,1.6-2.4C344.5,51.6,344.8,50.5,345,49.3z"/>
<path class="st0" d="M352.9,55.9l0.2,0.4c-0.2,0.2-0.7,0.5-1.4,1c-0.6,0.4-1.1,0.7-1.8,1c-0.2,0.1-0.4,0.1-0.6,0.1
	c-0.2,0-0.4-0.1-0.5-0.2c-0.1-0.2-0.2-0.4-0.2-0.7c0-0.3,0-0.5,0.1-0.8c0.1-0.4,0.4-2,1.1-4.6c0.5-1.9,0.8-3.2,0.9-3.8
	c0.3-1.4,0.5-2.6,0.7-3.5c0-0.2,0-0.4,0-0.6c0-0.2,0-0.3-0.2-0.4c-0.2-0.1-0.4-0.1-0.7-0.1h-1l0.1-0.4c0.6-0.1,1.3-0.2,1.9-0.3
	c0.6-0.1,1.2-0.3,1.7-0.6l0.3,0.2c-0.1,0.6-0.7,3.1-1.7,7.3c-0.8,3.4-1.2,5.5-1.3,6.3c0,0.1,0,0.2,0,0.3c0,0.1,0,0.3,0.1,0.3
	c0.1,0.1,0.2,0.1,0.3,0.1c0.1,0,0.2,0,0.2-0.1c0.3-0.1,0.6-0.3,0.9-0.5L352.9,55.9z"/>
<path class="st0" d="M354.2,64.2l-0.1-0.1c0.4-1.7,0.7-3,0.9-4c0.6-2.9,1-5.2,1.3-6.8c0.2-1,0.3-2.1,0.4-3.2c0-0.1,0-0.3,0-0.4
	c0-0.1,0-0.2-0.1-0.3c-0.1-0.1-0.1-0.1-0.2-0.1c-0.1,0-0.1,0-0.2,0c-0.1,0-0.2,0.1-0.3,0.1c-0.1,0.1-0.4,0.2-0.7,0.4l-0.9,0.5
	l-0.2-0.4c0.8-0.6,1.7-1.2,2.6-1.6c0.4-0.2,0.9-0.4,1.3-0.4c0.1,0,0.3,0,0.4,0.1c0.1,0.1,0.2,0.2,0.1,0.4c0,0.1,0,0.2,0,0.3
	c0,0.1-0.1,0.4-0.1,0.8c-0.1,0.6-0.2,1-0.2,1.1c-0.1,0.7-0.2,1.1-0.3,1.3c0.6-0.9,1.3-1.7,2-2.4c0.6-0.6,1.4-1,2.1-1.3
	c0.4-0.2,0.9-0.3,1.4-0.3c0.2,0,0.5,0.1,0.7,0.2c0.2,0.2,0.4,0.5,0.5,0.8c0.1,0.5,0.2,0.9,0.2,1.4c0,1-0.3,2.1-0.7,3
	c-0.3,0.8-0.7,1.6-1.1,2.2c-0.5,0.6-1.1,1.2-1.8,1.6c-0.7,0.4-1.4,0.8-2.2,1.1c-0.2,0.1-0.5,0.1-0.8,0.1c-0.2,0-0.3,0-0.5,0
	c-0.2,0-0.5-0.1-1-0.3c-0.1,0.5-0.2,1.4-0.5,2.6l-0.5,3C355.4,63.9,354.8,64,354.2,64.2z M357.1,56.9c0.6,0.3,1.3,0.5,2,0.5
	c0.5,0,1-0.1,1.4-0.3c0.4-0.3,0.8-0.7,1-1.1c0.5-0.9,1-1.8,1.2-2.8c0.3-0.9,0.4-1.7,0.4-2.6c0-0.4,0-0.8-0.2-1.2
	c-0.1-0.2-0.4-0.3-0.6-0.3c-0.4,0-0.8,0.1-1.2,0.3c-0.5,0.2-0.9,0.5-1.2,0.8c-0.6,0.5-1,1.1-1.4,1.8c-0.4,0.7-0.8,1.5-1,2.3
	C357.6,54.6,357.4,55.5,357.1,56.9L357.1,56.9z"/>
<path class="st0" d="M366.3,58.4l-0.2-0.1c0.6-2,1-3.7,1.3-5.1c0.4-1.8,0.8-3.4,1.1-5c0.3-1.6,0.5-2.8,0.7-3.6c0-0.1,0-0.2,0-0.3
	c0-0.1,0-0.2-0.1-0.3c-0.1-0.1-0.2-0.1-0.3-0.1c-0.2,0-0.7,0-1.5,0l0.1-0.4c1.3-0.1,2.5-0.4,3.7-0.9l0.2,0.2c-0.1,0.5-0.2,1-0.3,1.2
	l-1,4.3l-0.9,4.1l0.1,0c0.6-0.7,1.1-1.3,1.4-1.6c0.6-0.6,1.2-1.1,1.9-1.6c0.6-0.4,1.2-0.7,1.9-1c0.3-0.1,0.7-0.2,1-0.2
	c0.4,0,0.7,0.3,0.7,0.7c0,0.2,0,0.3-0.1,0.5c-0.1,0.2-0.2,0.9-0.5,1.9c-0.5,1.8-0.9,3.3-1.1,4.6c-0.1,0.4-0.2,0.8-0.2,1.1
	c0,0.1,0,0.2,0.1,0.3c0.1,0.1,0.1,0.1,0.2,0.1c0.7-0.2,1.4-0.6,2-1.1l0.2,0.4c-0.4,0.3-1,0.7-1.6,1.1c-0.6,0.3-1.2,0.6-1.8,0.9
	c-0.1,0.1-0.2,0.1-0.4,0.1c-0.2,0-0.3-0.1-0.4-0.2c-0.1-0.2-0.2-0.4-0.2-0.7c0-0.4,0.1-0.9,0.2-1.3l0.9-3.4c0.3-1.2,0.5-2.1,0.6-2.6
	c0-0.1,0-0.3,0-0.4c0-0.1,0-0.2-0.1-0.3c-0.1-0.1-0.2-0.1-0.3-0.1c-0.2,0-0.5,0.1-0.7,0.2c-0.8,0.4-1.4,0.9-2.1,1.5
	c-0.7,0.6-1.2,1.3-1.7,2.1c-0.4,0.8-0.7,1.6-0.9,2.5l-0.5,2.4l-1.2,0.2C366.6,58.4,366.4,58.4,366.3,58.4z"/>
<path class="st0" d="M387,56l0.1,0.5l-1.7,1.2c-0.4,0.3-0.8,0.5-1.3,0.7c-0.1,0-0.2,0.1-0.3,0.1c-0.2,0-0.3-0.1-0.4-0.2
	c-0.1-0.1-0.2-0.3-0.2-0.5c0.1-1.3,0.4-2.5,0.8-3.8l-0.1,0c-0.6,0.8-1,1.3-1.3,1.7c-0.5,0.6-1.1,1.2-1.8,1.7c-0.5,0.4-1.1,0.8-1.7,1
	c-0.1,0.1-0.3,0.1-0.4,0.1c-0.2,0-0.4-0.1-0.5-0.3c-0.2-0.5-0.4-1-0.3-1.5c0-1.1,0.2-2.2,0.5-3.2c0.3-1.1,0.7-2.2,1.3-3.2
	c0.3-0.5,0.6-0.9,1-1.2c0.6-0.5,1.3-0.8,2-1.1c0.4-0.1,0.9-0.2,1.3-0.2c0.3,0,0.6,0,0.9,0.1c0.4,0.1,0.8,0.2,1.1,0.3l0.7-0.4L387,48
	c-0.5,1.6-0.9,3-1.3,4.4c-0.2,0.8-0.4,1.5-0.5,1.9c-0.1,0.7-0.3,1.3-0.3,1.9c0,0.1,0,0.2,0,0.3c0,0.1,0,0.2,0.1,0.3
	c0.1,0,0.1,0.1,0.2,0.1c0.2,0,0.3-0.1,0.5-0.1C386.2,56.5,386.6,56.3,387,56z M385.1,49.3c-0.3-0.1-0.6-0.2-0.9-0.3
	c-0.3-0.1-0.6-0.1-1-0.1c-0.5,0-1,0.1-1.5,0.3c-0.2,0.2-0.4,0.4-0.5,0.7c-0.4,0.8-0.7,1.6-1,2.5c-0.4,1.2-0.6,2.5-0.7,3.8
	c0,0.1,0,0.3,0,0.4c0,0.1,0.1,0.2,0.2,0.2c0.1,0,0.1,0.1,0.2,0.1c0.2,0,0.5-0.1,0.7-0.3c0.7-0.5,1.3-1,1.8-1.6
	c0.7-0.7,1.2-1.5,1.6-2.4C384.5,51.6,384.9,50.5,385.1,49.3z"/>
</svg>
