<svg id="Layer_1" data-name="Layer 1" xmlns="http://www.w3.org/2000/svg" viewBox="0 0 501.88 66.19"><defs><style>.cls-1{fill:#afabab;}.cls-2{fill:#767171;}.cls-3{fill:#c6c6c6;fill-rule:evenodd;}</style></defs><title>autopandas_alpha</title><path class="cls-1" d="M36,36.12q3.75,3.12,3.75,10.29V65.67H32.47V62.82a13.09,13.09,0,0,1-4.39,2.7,15.33,15.33,0,0,1-5.5,1q-4.93,0-7.51-2.43a8.63,8.63,0,0,1-2.58-6.6,8.35,8.35,0,0,1,2.13-5.76,13.38,13.38,0,0,1,6.15-3.62,32.74,32.74,0,0,1,9.61-1.24H32.7c-.22-2.76-.89-4.72-2-5.9a6.76,6.76,0,0,0-5.13-1.77A10.39,10.39,0,0,0,21,40.31a15.19,15.19,0,0,0-4.33,3.19l-3.87-5a21.56,21.56,0,0,1,6.4-4.1A17.9,17.9,0,0,1,26,33Q32.21,33,36,36.12ZM30.35,58.59c1.3-1.42,2.08-3.64,2.35-6.69H31.18c-3.88,0-6.72.42-8.5,1.26a4.15,4.15,0,0,0-2.68,4,3,3,0,0,0,1.34,2.71A6.7,6.7,0,0,0,25,60.7,6.89,6.89,0,0,0,30.35,58.59Z" transform="translate(-12.49 -20.64)"/><path class="cls-1" d="M49.79,63.86q-2.7-3.15-2.7-10V34h7.48V53.82a9.16,9.16,0,0,0,1.21,5.26A3.82,3.82,0,0,0,59.1,60.8a6.27,6.27,0,0,0,3.44-1A6.85,6.85,0,0,0,65,57a8.94,8.94,0,0,0,.89-4V34h7.64V60.5a29.37,29.37,0,0,0,.12,3.08,7,7,0,0,0,.58,2.09H66.81A5.12,5.12,0,0,1,66.26,64a16.22,16.22,0,0,1-.11-2,10.51,10.51,0,0,1-8.54,5Q52.48,67,49.79,63.86Z" transform="translate(-12.49 -20.64)"/><path class="cls-1" d="M108.36,62.82a20.07,20.07,0,0,1-5.14,2.83,16.7,16.7,0,0,1-5.78,1c-3.28,0-5.8-1-7.54-2.91s-2.61-5.28-2.61-10c0-1.21.06-2.55.2-4l.56-9.5H81.2L81.33,34h7.08l.43-7.41,8.34-1.39.13.76-.33.48a3.2,3.2,0,0,0-.43.89,4.63,4.63,0,0,0-.2,1.21L95.86,34h9.72l-.13,6.15H95.72l-.72,9c-.11,1.54-.17,2.78-.17,3.71,0,2.8.34,4.75,1,5.87a3.49,3.49,0,0,0,3.21,1.67,9.11,9.11,0,0,0,3.8-.8A16.15,16.15,0,0,0,106.74,57Z" transform="translate(-12.49 -20.64)"/><path class="cls-1" d="M120.77,64.61a15.08,15.08,0,0,1-5.43-6,18.79,18.79,0,0,1-2-8.74,17.48,17.48,0,0,1,2-8.38,15.47,15.47,0,0,1,5.47-6,14.14,14.14,0,0,1,15.12,0,15.49,15.49,0,0,1,5.48,6,17.59,17.59,0,0,1,2,8.38,18.79,18.79,0,0,1-2,8.74,15,15,0,0,1-5.43,6,14.65,14.65,0,0,1-15.28,0Zm11.56-5.31a8.45,8.45,0,0,0,2.57-3.77,16.55,16.55,0,0,0,.89-5.65,15.87,15.87,0,0,0-.89-5.59,7.89,7.89,0,0,0-2.57-3.6,6.32,6.32,0,0,0-3.92-1.26,6,6,0,0,0-3.79,1.26,8,8,0,0,0-2.54,3.62,15.45,15.45,0,0,0-.91,5.57,16.83,16.83,0,0,0,.87,5.68,8.4,8.4,0,0,0,2.5,3.75,5.89,5.89,0,0,0,3.87,1.33A6.09,6.09,0,0,0,132.33,59.3Z" transform="translate(-12.49 -20.64)"/><path class="cls-2" d="M152.79,34.74h7.31v3.9a9.32,9.32,0,0,1,3.49-3.51A9.67,9.67,0,0,1,168.24,34,11.52,11.52,0,0,1,174.68,36a13.31,13.31,0,0,1,4.68,5.69,21.36,21.36,0,0,1,1.75,9.07,21,21,0,0,1-1.79,9.14,13.2,13.2,0,0,1-4.69,5.64,11.39,11.39,0,0,1-6.32,1.89,9.55,9.55,0,0,1-4.55-1.08,8.13,8.13,0,0,1-3.33-3.39V77.68h-7.57ZM170.09,60a7.78,7.78,0,0,0,2.49-3.59,17.35,17.35,0,0,0,.92-6.07A14.82,14.82,0,0,0,172,43a5.19,5.19,0,0,0-4.88-2.75,5.37,5.37,0,0,0-5.06,2.9A16.23,16.23,0,0,0,160.43,51q0,5.13,1.66,7.64a5.12,5.12,0,0,0,4.5,2.52A5.71,5.71,0,0,0,170.09,60Z" transform="translate(-12.49 -20.64)"/><path class="cls-2" d="M209.18,36.82q3.76,3.1,3.76,10.29V66.36h-7.25V63.52a13,13,0,0,1-4.38,2.7,15.39,15.39,0,0,1-5.51,1q-4.94,0-7.51-2.43a8.63,8.63,0,0,1-2.58-6.6,8.35,8.35,0,0,1,2.13-5.76A13.38,13.38,0,0,1,194,48.78a32.69,32.69,0,0,1,9.61-1.24h2.31q-.33-4.14-2-5.91a6.79,6.79,0,0,0-5.13-1.77A10.32,10.32,0,0,0,194.25,41a15.46,15.46,0,0,0-4.34,3.2l-3.87-5a21.62,21.62,0,0,1,6.4-4.1,17.76,17.76,0,0,1,6.74-1.39Q205.42,33.71,209.18,36.82Zm-5.61,22.46q2-2.12,2.35-6.68H204.4q-5.82,0-8.5,1.26a4.15,4.15,0,0,0-2.68,4,3,3,0,0,0,1.34,2.71,6.72,6.72,0,0,0,3.69.86A6.84,6.84,0,0,0,203.57,59.28Z" transform="translate(-12.49 -20.64)"/><path class="cls-2" d="M220.94,34.74h7.65V38a12,12,0,0,1,4-2.9,12.17,12.17,0,0,1,5-1,8.91,8.91,0,0,1,7.19,3.19q2.7,3.2,2.7,10V66.36H239.9V47.24c0-2.38-.43-4.13-1.31-5.26a4.61,4.61,0,0,0-3.88-1.69,7.2,7.2,0,0,0-3,.65,5.21,5.21,0,0,0-2.25,1.93,5.71,5.71,0,0,0-.84,3.18V66.36h-7.65Z" transform="translate(-12.49 -20.64)"/><path class="cls-2" d="M259.42,65.55A12.57,12.57,0,0,1,254.56,60a20.48,20.48,0,0,1-1.79-9,20.78,20.78,0,0,1,1.84-9,14.22,14.22,0,0,1,4.91-5.92A11.79,11.79,0,0,1,266.2,34a9.89,9.89,0,0,1,3.91.89,10.64,10.64,0,0,1,3.4,2.29V20.64h8.27v.76a1.92,1.92,0,0,0-.46.88,7.76,7.76,0,0,0-.06,1.6l-.14,38.68a13.38,13.38,0,0,0,.14,2,5.35,5.35,0,0,0,.59,1.77h-7.38a4.3,4.3,0,0,1-.54-1.62,20.27,20.27,0,0,1-.08-2.18,7.25,7.25,0,0,1-3.15,3.61,8.89,8.89,0,0,1-4.43,1.22A13,13,0,0,1,259.42,65.55Zm14.16-15.36a16.8,16.8,0,0,0-1.32-7.28,4.79,4.79,0,0,0-4.7-2.72,5.82,5.82,0,0,0-5.34,3,15,15,0,0,0-1.77,7.74,14.05,14.05,0,0,0,1,5.83A7.45,7.45,0,0,0,264.1,60a5.86,5.86,0,0,0,3.26,1Q273.58,61.07,273.58,50.19Z" transform="translate(-12.49 -20.64)"/><path class="cls-2" d="M310.82,36.82q3.75,3.1,3.75,10.29V66.36h-7.24V63.52a13.09,13.09,0,0,1-4.39,2.7,15.35,15.35,0,0,1-5.51,1c-3.28,0-5.79-.81-7.51-2.43a8.63,8.63,0,0,1-2.58-6.6,8.31,8.31,0,0,1,2.14-5.76,13.29,13.29,0,0,1,6.15-3.62,32.69,32.69,0,0,1,9.61-1.24h2.32c-.22-2.76-.9-4.73-2-5.91a6.79,6.79,0,0,0-5.13-1.77A10.39,10.39,0,0,0,295.88,41a15.61,15.61,0,0,0-4.34,3.2l-3.87-5a21.53,21.53,0,0,1,6.41-4.1,17.71,17.71,0,0,1,6.73-1.39Q307.07,33.71,310.82,36.82Zm-5.61,22.46q1.95-2.12,2.35-6.68H306c-3.89,0-6.72.42-8.51,1.26a4.17,4.17,0,0,0-2.68,4,3,3,0,0,0,1.34,2.71,6.76,6.76,0,0,0,3.69.86A6.87,6.87,0,0,0,305.21,59.28Z" transform="translate(-12.49 -20.64)"/><path class="cls-2" d="M342.46,48.66l2.22,1.21a8.27,8.27,0,0,1,3.24,2.9A8,8,0,0,1,349,57a9,9,0,0,1-1.64,5.15A11.78,11.78,0,0,1,342.82,66a13.71,13.71,0,0,1-6.35,1.46,24.49,24.49,0,0,1-8.3-1.28,18.48,18.48,0,0,1-6.49-4.08l3.18-5.56,0-.07.07.07a14.56,14.56,0,0,0,5,3.65,16.69,16.69,0,0,0,6.57,1.15c3.62,0,5.42-1.2,5.42-3.58a2.86,2.86,0,0,0-.66-1.88,5.84,5.84,0,0,0-2.11-1.46,30.85,30.85,0,0,0-4-1.39,25.71,25.71,0,0,1-8.48-3.59,6.93,6.93,0,0,1-3-6,8.39,8.39,0,0,1,1.47-4.88,9.65,9.65,0,0,1,4.24-3.34A15.91,15.91,0,0,1,335.84,34a18.21,18.21,0,0,1,6.77,1.21,17.08,17.08,0,0,1,5.64,3.69l-3.84,5.32,0,.07a0,0,0,0,1,0,0,9.47,9.47,0,0,0-3.59-3.08A10.58,10.58,0,0,0,336,40.13a7.43,7.43,0,0,0-3.38.69,2.11,2.11,0,0,0-1.35,1.89,2.59,2.59,0,0,0,.74,1.87,6.54,6.54,0,0,0,2.25,1.4c1,.42,2.44.92,4.32,1.49Zm-17.83,7.55v-.1a0,0,0,0,1,0,0l.37.16-.14.23Zm1.22.3a.05.05,0,0,1-.06.06.89.89,0,0,1-.35-.13l-.41-.2.13-.23.66.4Zm17.6-12.25s0-.06.07-.06a.8.8,0,0,1,.35.16l.34.23-.13.17-.63-.43Zm1.16.53s-.05,0-.15,0l-.25-.15.17-.26A1.47,1.47,0,0,1,344.61,44.79Z" transform="translate(-12.49 -20.64)"/><ellipse class="cls-2" cx="490.88" cy="15.59" rx="11.01" ry="12.01"/><circle class="cls-2" cx="445.85" cy="15.59" r="12.01"/><path class="cls-3" d="M480.35,28.23l2.13,0,1.92.47c4.05,1,7.84,2.23,10.65,4.13,3.73,2.53,5.1,5.56,7.66,10.07s7.69,12.53,7.66,17-2.59,7.95-7.86,9.91c-3.45,1.28-10.61,2.24-16.42,2.37h-1v0H476v0h-1.39c-5.82-.13-13-1.09-16.43-2.37-5.26-2-7.82-5.43-7.85-9.91s5.11-12.5,7.66-17,3.93-7.54,7.66-10.07c2.8-1.9,6.6-3.11,10.65-4.13l1.92-.47Z" transform="translate(-12.49 -20.64)"/><polygon class="cls-2" points="464.84 13.59 470.54 22.61 468.19 23.67 475.36 31.39 473.01 32.68 481.87 45.61 466.84 35.7 469.71 34.33 460.37 27.98 463.72 26.02 453.86 19.36 464.84 13.59"/><path class="cls-1" d="M372.11,74.37l.18.69-2.58,1.87A11,11,0,0,1,367.77,78a1.14,1.14,0,0,1-.45.11.85.85,0,0,1-.6-.3,1.09,1.09,0,0,1-.29-.76,24.47,24.47,0,0,1,1.13-5.69l-.12-.05c-.86,1.14-1.53,2-2,2.52a21.76,21.76,0,0,1-2.72,2.59A11.66,11.66,0,0,1,360.17,78a1.86,1.86,0,0,1-.62.13.84.84,0,0,1-.74-.42,4.18,4.18,0,0,1-.47-2.29,17.93,17.93,0,0,1,.8-4.83,25.35,25.35,0,0,1,1.9-4.82,5.12,5.12,0,0,1,1.57-1.75,12,12,0,0,1,3-1.66,6.42,6.42,0,0,1,2-.31,7.91,7.91,0,0,1,1.42.12,11.45,11.45,0,0,1,1.7.46l1.1-.61.38.29c-.74,2.37-1.39,4.62-2,6.73-.34,1.27-.58,2.22-.7,2.85-.22,1-.39,1.95-.52,2.86a3.73,3.73,0,0,0,0,.43.8.8,0,0,0,.13.5.49.49,0,0,0,.33.11,1.76,1.76,0,0,0,.71-.21A16.58,16.58,0,0,0,372.11,74.37Zm-2.86-10.12a6.76,6.76,0,0,0-1.34-.43,7.91,7.91,0,0,0-1.48-.13,4.45,4.45,0,0,0-2.27.46,2.57,2.57,0,0,0-.79,1.07A22.69,22.69,0,0,0,361.85,69a20.4,20.4,0,0,0-1,5.78,2,2,0,0,0,.08.64.65.65,0,0,0,.23.32.54.54,0,0,0,.3.1,2.22,2.22,0,0,0,1-.42A14.2,14.2,0,0,0,365.24,73a14,14,0,0,0,2.41-3.62A24.32,24.32,0,0,0,369.25,64.25Z" transform="translate(-12.49 -20.64)"/><path class="cls-1" d="M381.14,74.27l.29.66c-.3.25-1,.74-2.1,1.49a14.44,14.44,0,0,1-2.68,1.52,2.47,2.47,0,0,1-.93.21,1,1,0,0,1-.77-.33,1.56,1.56,0,0,1-.28-1,5.74,5.74,0,0,1,.12-1.17c.11-.65.66-3,1.63-7q1.05-4.35,1.33-5.69c.46-2.18.78-3.93,1-5.27a6.22,6.22,0,0,0,.07-.85.8.8,0,0,0-.23-.64,1.74,1.74,0,0,0-1-.18l-1.58,0,.08-.66a21.36,21.36,0,0,0,2.88-.45,20.37,20.37,0,0,0,2.65-.84l.44.26q-.34,1.47-2.51,11-1.76,7.74-2,9.5a2.68,2.68,0,0,0-.05.53.74.74,0,0,0,.17.53.5.5,0,0,0,.38.2.93.93,0,0,0,.34-.08,10.18,10.18,0,0,0,1.33-.73Z" transform="translate(-12.49 -20.64)"/><path class="cls-1" d="M383.18,86.83l-.2-.19c.58-2.51,1-4.54,1.36-6.09q1.34-6.63,2-10.29c.27-1.51.49-3.13.67-4.85a4.17,4.17,0,0,0,.06-.58.57.57,0,0,0-.14-.4.43.43,0,0,0-.33-.15.75.75,0,0,0-.24,0,2.85,2.85,0,0,0-.46.18c-.21.1-.54.28-1,.54l-1.36.81-.35-.62a23.08,23.08,0,0,1,3.91-2.49,5.22,5.22,0,0,1,2-.63.84.84,0,0,1,.59.19.71.71,0,0,1,.22.57,3.52,3.52,0,0,1,0,.5c0,.21-.08.62-.19,1.22-.17.92-.28,1.49-.32,1.69-.22,1-.35,1.62-.4,1.9a16.16,16.16,0,0,1,3.1-3.61,12,12,0,0,1,3.25-2,6.05,6.05,0,0,1,2.08-.47,1.65,1.65,0,0,1,1,.3,2.61,2.61,0,0,1,.71,1.22,6.73,6.73,0,0,1,.32,2.16,13.76,13.76,0,0,1-1,4.62,13,13,0,0,1-1.74,3.4A10.36,10.36,0,0,1,394,76.23a18.49,18.49,0,0,1-3.34,1.7,3.39,3.39,0,0,1-1.17.22,3.94,3.94,0,0,1-.77-.07c-.26,0-.75-.18-1.5-.39-.13.82-.36,2.18-.69,4l-.75,4.56A12.62,12.62,0,0,0,383.18,86.83Zm4.37-11a6.22,6.22,0,0,0,3,.77,4,4,0,0,0,2.13-.51,5.21,5.21,0,0,0,1.59-1.71,17.29,17.29,0,0,0,1.88-4.22,14.61,14.61,0,0,0,.67-4,3.56,3.56,0,0,0-.31-1.84,1.05,1.05,0,0,0-.9-.41,4.25,4.25,0,0,0-1.75.42,7.33,7.33,0,0,0-1.88,1.27,12.22,12.22,0,0,0-2.17,2.66,12.76,12.76,0,0,0-1.44,3.54C388.21,72.33,388,73.66,387.55,75.87Z" transform="translate(-12.49 -20.64)"/><path class="cls-1" d="M401.44,78.1l-.23-.22q1.28-4.59,2-7.77.94-4,1.62-7.57c.46-2.39.77-4.21,1-5.46a4.4,4.4,0,0,0,0-.48.68.68,0,0,0-.13-.46.76.76,0,0,0-.47-.21c-.23,0-1,0-2.24,0l.09-.67a23.81,23.81,0,0,0,5.68-1.35l.34.32c-.22.82-.37,1.44-.46,1.87l-1.52,6.51-1.39,6.27.12.06c.92-1.1,1.65-1.92,2.18-2.46a17.88,17.88,0,0,1,2.83-2.4,12,12,0,0,1,2.92-1.47,5.47,5.47,0,0,1,1.58-.34,1,1,0,0,1,1,1,3.36,3.36,0,0,1-.09.72c-.08.37-.32,1.3-.72,2.81-.74,2.72-1.31,5-1.74,7a11,11,0,0,0-.29,1.72.52.52,0,0,0,.13.38A.42.42,0,0,0,414,76a8.28,8.28,0,0,0,3-1.65l.35.6c-.62.49-1.45,1.06-2.47,1.71A18,18,0,0,1,412.17,78a1.55,1.55,0,0,1-.55.13.75.75,0,0,1-.58-.32,1.67,1.67,0,0,1-.26-1,9.09,9.09,0,0,1,.36-2l1.29-5.16c.46-1.8.76-3.13.91-4a3.7,3.7,0,0,0,.07-.65.51.51,0,0,0-.17-.42.68.68,0,0,0-.5-.16,2.41,2.41,0,0,0-1.08.28,13.22,13.22,0,0,0-3.11,2.23A13,13,0,0,0,406,70.15a15.42,15.42,0,0,0-1.42,3.73l-.74,3.69-1.77.36C401.84,78,401.63,78,401.44,78.1Z" transform="translate(-12.49 -20.64)"/><path class="cls-1" d="M432.77,74.37l.19.69-2.58,1.87A11.34,11.34,0,0,1,428.43,78a1.14,1.14,0,0,1-.45.11.86.86,0,0,1-.6-.3,1.09,1.09,0,0,1-.29-.76,24.1,24.1,0,0,1,1.14-5.69l-.12-.05c-.87,1.14-1.54,2-2,2.52a21.76,21.76,0,0,1-2.72,2.59A11.66,11.66,0,0,1,420.83,78a1.86,1.86,0,0,1-.62.13.84.84,0,0,1-.74-.42,4.18,4.18,0,0,1-.47-2.29,17.93,17.93,0,0,1,.8-4.83,25.35,25.35,0,0,1,1.9-4.82,5.12,5.12,0,0,1,1.57-1.75,12.15,12.15,0,0,1,3-1.66,6.42,6.42,0,0,1,2-.31,7.91,7.91,0,0,1,1.42.12,11.13,11.13,0,0,1,1.7.46l1.1-.61.38.29c-.74,2.37-1.38,4.62-1.95,6.73-.34,1.27-.58,2.22-.7,2.85-.22,1-.39,1.95-.52,2.86a3.73,3.73,0,0,0,0,.43.8.8,0,0,0,.13.5.5.5,0,0,0,.33.11,1.79,1.79,0,0,0,.72-.21A17.83,17.83,0,0,0,432.77,74.37Zm-2.86-10.12a6.56,6.56,0,0,0-1.34-.43,7.84,7.84,0,0,0-1.48-.13,4.45,4.45,0,0,0-2.27.46,2.57,2.57,0,0,0-.79,1.07A22.69,22.69,0,0,0,422.51,69a20.35,20.35,0,0,0-1,5.78,2,2,0,0,0,.07.64.65.65,0,0,0,.23.32.56.56,0,0,0,.3.1,2.24,2.24,0,0,0,1-.42A14.47,14.47,0,0,0,425.9,73a14,14,0,0,0,2.41-3.62A23.75,23.75,0,0,0,429.91,64.25Z" transform="translate(-12.49 -20.64)"/></svg>